{
	"asset":{
		"generator":"Khronos glTF Blender I/O v3.6.27",
		"version":"2.0"
	},
	"extensionsUsed":[
		"KHR_materials_emissive_strength"
	],
	"scene":0,
	"scenes":[
		{
			"name":"Scene",
			"nodes":[
				0,
				1
			]
		}
	],
	"nodes":[
		{
			"mesh":0,
			"name":"Cube.004",
			"translation":[
				23,
				40,
				-126
			]
		},
		{
			"mesh":1,
			"name":"Plane.004",
			"rotation":[
				0.6532815098762512,
				0.27059805393218994,
				-0.27059808373451233,
				0.6532815098762512
			],
			"translation":[
				32.79241943359375,
				31.25,
				-88.25
			]
		}
	],
	"materials":[
		{
			"doubleSided":true,
			"name":"ShinyBlack",
			"pbrMetallicRoughness":{
				"baseColorFactor":[
					0.010021704249083996,
					0.010021704249083996,
					0.010021704249083996,
					1
				],
				"metallicFactor":0.20000000298023224,
				"roughnessFactor":0.5
			}
		},
		{
			"doubleSided":true,
			"name":"MattBlack",
			"pbrMetallicRoughness":{
				"baseColorFactor":[
					0.03967929631471634,
					0.03967929631471634,
					0.03967929631471634,
					1
				],
				"metallicFactor":0,
				"roughnessFactor":0.5
			}
		},
		{
			"doubleSided":true,
			"emissiveFactor":[
				1,
				0.48979124426841736,
				0
			],
			"extensions":{
				"KHR_materials_emissive_strength":{
					"emissiveStrength":10
				}
			},
			"name":"Neon_Yellow",
			"pbrMetallicRoughness":{
				"baseColorFactor":[
					0.800000011920929,
					0.800000011920929,
					0.800000011920929,
					1
				],
				"metallicFactor":0,
				"roughnessFactor":0.5
			}
		},
		{
			"doubleSided":true,
			"emissiveFactor":[
				1,
				1,
				1
			],
			"extensions":{
				"KHR_materials_emissive_strength":{
					"emissiveStrength":10
				}
			},
			"name":"Window",
			"pbrMetallicRoughness":{
				"baseColorFactor":[
					0.800000011920929,
					0.800000011920929,
					0.800000011920929,
					1
				],
				"metallicFactor":0,
				"roughnessFactor":0.5
			}
		}
	],
	"meshes":[
		{
			"name":"Cube.025",
			"primitives":[
				{
					"attributes":{
						"POSITION":0,
						"NORMAL":1,
						"TEXCOORD_0":2
					},
					"indices":3,
					"material":0
				},
				{
					"attributes":{
						"POSITION":4,
						"NORMAL":5,
						"TEXCOORD_0":6
					},
					"indices":7,
					"material":1
				},
				{
					"attributes":{
						"POSITION":8,
						"NORMAL":9,
						"TEXCOORD_0":10
					},
					"indices":11,
					"material":2
				}
			]
		},
		{
			"name":"Plane.005",
			"primitives":[
				{
					"attributes":{
						"POSITION":12,
						"NORMAL":13,
						"TEXCOORD_0":14
					},
					"indices":15,
					"material":3
				}
			]
		}
	],
	"accessors":[
		{
			"bufferView":0,
			"componentType":5126,
			"count":198,
			"max":[
				40,
				120,
				40
			],
			"min":[
				-40,
				-40,
				-40
			],
			"type":"VEC3"
		},
		{
			"bufferView":1,
			"componentType":5126,
			"count":198,
			"type":"VEC3"
		},
		{
			"bufferView":2,
			"componentType":5126,
			"count":198,
			"type":"VEC2"
		},
		{
			"bufferView":3,
			"componentType":5123,
			"count":384,
			"type":"SCALAR"
		},
		{
			"bufferView":4,
			"componentType":5126,
			"count":176,
			"max":[
				45,
				76.25,
				45
			],
			"min":[
				-46,
				-11.25,
				-45
			],
			"type":"VEC3"
		},
		{
			"bufferView":5,
			"componentType":5126,
			"count":176,
			"type":"VEC3"
		},
		{
			"bufferView":6,
			"componentType":5126,
			"count":176,
			"type":"VEC2"
		},
		{
			"bufferView":7,
			"componentType":5123,
			"count":444,
			"type":"SCALAR"
		},
		{
			"bufferView":8,
			"componentType":5126,
			"count":24,
			"max":[
				34,
				115,
				40
			],
			"min":[
				-20,
				-40,
				5.999999046325684
			],
			"type":"VEC3"
		},
		{
			"bufferView":9,
			"componentType":5126,
			"count":24,
			"type":"VEC3"
		},
		{
			"bufferView":10,
			"componentType":5126,
			"count":24,
			"type":"VEC2"
		},
		{
			"bufferView":11,
			"componentType":5123,
			"count":36,
			"type":"SCALAR"
		},
		{
			"bufferView":12,
			"componentType":5126,
			"count":528,
			"max":[
				45.75483703613281,
				3.814697265625e-06,
				0.5000017285346985
			],
			"min":[
				-6.363624572753906,
				-0.2067718505859375,
				-82.5
			],
			"type":"VEC3"
		},
		{
			"bufferView":13,
			"componentType":5126,
			"count":528,
			"type":"VEC3"
		},
		{
			"bufferView":14,
			"componentType":5126,
			"count":528,
			"type":"VEC2"
		},
		{
			"bufferView":15,
			"componentType":5123,
			"count":792,
			"type":"SCALAR"
		}
	],
	"bufferViews":[
		{
			"buffer":0,
			"byteLength":2376,
			"byteOffset":0,
			"target":34962
		},
		{
			"buffer":0,
			"byteLength":2376,
			"byteOffset":2376,
			"target":34962
		},
		{
			"buffer":0,
			"byteLength":1584,
			"byteOffset":4752,
			"target":34962
		},
		{
			"buffer":0,
			"byteLength":768,
			"byteOffset":6336,
			"target":34963
		},
		{
			"buffer":0,
			"byteLength":2112,
			"byteOffset":7104,
			"target":34962
		},
		{
			"buffer":0,
			"byteLength":2112,
			"byteOffset":9216,
			"target":34962
		},
		{
			"buffer":0,
			"byteLength":1408,
			"byteOffset":11328,
			"target":34962
		},
		{
			"buffer":0,
			"byteLength":888,
			"byteOffset":12736,
			"target":34963
		},
		{
			"buffer":0,
			"byteLength":288,
			"byteOffset":13624,
			"target":34962
		},
		{
			"buffer":0,
			"byteLength":288,
			"byteOffset":13912,
			"target":34962
		},
		{
			"buffer":0,
			"byteLength":192,
			"byteOffset":14200,
			"target":34962
		},
		{
			"buffer":0,
			"byteLength":72,
			"byteOffset":14392,
			"target":34963
		},
		{
			"buffer":0,
			"byteLength":6336,
			"byteOffset":14464,
			"target":34962
		},
		{
			"buffer":0,
			"byteLength":6336,
			"byteOffset":20800,
			"target":34962
		},
		{
			"buffer":0,
			"byteLength":4224,
			"byteOffset":27136,
			"target":34962
		},
		{
			"buffer":0,
			"byteLength":1584,
			"byteOffset":31360,
			"target":34963
		}
	],
	"buffers":[
		{
			"byteLength":32944,
			"uri":"data:application/octet-stream;base64,"
		}
	]
}
