{
	"asset":{
		"generator":"Khronos glTF Blender I/O v3.6.27",
		"version":"2.0"
	},
	"extensionsUsed":[
		"KHR_materials_emissive_strength"
	],
	"scene":0,
	"scenes":[
		{
			"name":"Scene",
			"nodes":[
				0,
				1,
				2
			]
		}
	],
	"nodes":[
		{
			"mesh":0,
			"name":"Plane",
			"translation":[
				100,
				0,
				9
			]
		},
		{
			"mesh":1,
			"name":"Plane.002",
			"rotation":[
				0,
				0,
				-0.7071068286895752,
				0.7071068286895752
			],
			"translation":[
				120.89982604980469,
				36,
				20
			]
		},
		{
			"mesh":2,
			"name":"Plane.158",
			"rotation":[
				0,
				0,
				-0.7071068286895752,
				0.7071068286895752
			],
			"translation":[
				78.794677734375,
				36,
				20
			]
		}
	],
	"materials":[
		{
			"doubleSided":true,
			"name":"ShinyBlack",
			"pbrMetallicRoughness":{
				"baseColorFactor":[
					0.010021704249083996,
					0.010021704249083996,
					0.010021704249083996,
					1
				],
				"metallicFactor":0.20000000298023224,
				"roughnessFactor":0.5
			}
		},
		{
			"doubleSided":true,
			"emissiveFactor":[
				1,
				0,
				0.0008594142273068428
			],
			"extensions":{
				"KHR_materials_emissive_strength":{
					"emissiveStrength":10
				}
			},
			"name":"Neo_Red",
			"pbrMetallicRoughness":{
				"baseColorFactor":[
					0.800000011920929,
					0.800000011920929,
					0.800000011920929,
					1
				],
				"metallicFactor":0,
				"roughnessFactor":0.5
			}
		},
		{
			"doubleSided":true,
			"emissiveFactor":[
				1,
				1,
				1
			],
			"extensions":{
				"KHR_materials_emissive_strength":{
					"emissiveStrength":10
				}
			},
			"name":"Window",
			"pbrMetallicRoughness":{
				"baseColorFactor":[
					0.800000011920929,
					0.800000011920929,
					0.800000011920929,
					1
				],
				"metallicFactor":0,
				"roughnessFactor":0.5
			}
		}
	],
	"meshes":[
		{
			"name":"Plane",
			"primitives":[
				{
					"attributes":{
						"POSITION":0,
						"NORMAL":1,
						"TEXCOORD_0":2
					},
					"indices":3,
					"material":0
				},
				{
					"attributes":{
						"POSITION":4,
						"NORMAL":5,
						"TEXCOORD_0":6
					},
					"indices":7,
					"material":1
				}
			]
		},
		{
			"name":"Plane.172",
			"primitives":[
				{
					"attributes":{
						"POSITION":8,
						"NORMAL":9,
						"TEXCOORD_0":10
					},
					"indices":11,
					"material":2
				}
			]
		},
		{
			"name":"Plane.169",
			"primitives":[
				{
					"attributes":{
						"POSITION":12,
						"NORMAL":13,
						"TEXCOORD_0":14
					},
					"indices":11,
					"material":2
				}
			]
		}
	],
	"accessors":[
		{
			"bufferView":0,
			"componentType":5126,
			"count":745,
			"max":[
				26,
				154,
				57
			],
			"min":[
				-26,
				0,
				-57
			],
			"type":"VEC3"
		},
		{
			"bufferView":1,
			"componentType":5126,
			"count":745,
			"type":"VEC3"
		},
		{
			"bufferView":2,
			"componentType":5126,
			"count":745,
			"type":"VEC2"
		},
		{
			"bufferView":3,
			"componentType":5123,
			"count":1386,
			"type":"SCALAR"
		},
		{
			"bufferView":4,
			"componentType":5126,
			"count":24,
			"max":[
				26,
				149,
				57
			],
			"min":[
				-26,
				0.9999995231628418,
				-57
			],
			"type":"VEC3"
		},
		{
			"bufferView":5,
			"componentType":5126,
			"count":24,
			"type":"VEC3"
		},
		{
			"bufferView":6,
			"componentType":5126,
			"count":24,
			"type":"VEC2"
		},
		{
			"bufferView":7,
			"componentType":5123,
			"count":48,
			"type":"SCALAR"
		},
		{
			"bufferView":8,
			"componentType":5126,
			"count":636,
			"max":[
				27.5,
				0,
				4.5
			],
			"min":[
				-111.5,
				-7.62939453125e-06,
				-43.5
			],
			"type":"VEC3"
		},
		{
			"bufferView":9,
			"componentType":5126,
			"count":636,
			"type":"VEC3"
		},
		{
			"bufferView":10,
			"componentType":5126,
			"count":636,
			"type":"VEC2"
		},
		{
			"bufferView":11,
			"componentType":5123,
			"count":954,
			"type":"SCALAR"
		},
		{
			"bufferView":12,
			"componentType":5126,
			"count":636,
			"max":[
				27.5,
				0,
				4.5
			],
			"min":[
				-111.5,
				-7.62939453125e-06,
				-43.5
			],
			"type":"VEC3"
		},
		{
			"bufferView":13,
			"componentType":5126,
			"count":636,
			"type":"VEC3"
		},
		{
			"bufferView":14,
			"componentType":5126,
			"count":636,
			"type":"VEC2"
		}
	],
	"bufferViews":[
		{
			"buffer":0,
			"byteLength":8940,
			"byteOffset":0,
			"target":34962
		},
		{
			"buffer":0,
			"byteLength":8940,
			"byteOffset":8940,
			"target":34962
		},
		{
			"buffer":0,
			"byteLength":5960,
			"byteOffset":17880,
			"target":34962
		},
		{
			"buffer":0,
			"byteLength":2772,
			"byteOffset":23840,
			"target":34963
		},
		{
			"buffer":0,
			"byteLength":288,
			"byteOffset":26612,
			"target":34962
		},
		{
			"buffer":0,
			"byteLength":288,
			"byteOffset":26900,
			"target":34962
		},
		{
			"buffer":0,
			"byteLength":192,
			"byteOffset":27188,
			"target":34962
		},
		{
			"buffer":0,
			"byteLength":96,
			"byteOffset":27380,
			"target":34963
		},
		{
			"buffer":0,
			"byteLength":7632,
			"byteOffset":27476,
			"target":34962
		},
		{
			"buffer":0,
			"byteLength":7632,
			"byteOffset":35108,
			"target":34962
		},
		{
			"buffer":0,
			"byteLength":5088,
			"byteOffset":42740,
			"target":34962
		},
		{
			"buffer":0,
			"byteLength":1908,
			"byteOffset":47828,
			"target":34963
		},
		{
			"buffer":0,
			"byteLength":7632,
			"byteOffset":49736,
			"target":34962
		},
		{
			"buffer":0,
			"byteLength":7632,
			"byteOffset":57368,
			"target":34962
		},
		{
			"buffer":0,
			"byteLength":5088,
			"byteOffset":65000,
			"target":34962
		}
	],
	"buffers":[
		{
			"byteLength":70088,
			"uri":"data:application/octet-stream;base64,"
		}
	]
}
