{
	"asset":{
		"generator":"Khronos glTF Blender I/O v3.6.27",
		"version":"2.0"
	},
	"extensionsUsed":[
		"KHR_materials_emissive_strength"
	],
	"scene":0,
	"scenes":[
		{
			"name":"Scene",
			"nodes":[
				0,
				1
			]
		}
	],
	"nodes":[
		{
			"mesh":0,
			"name":"Cube.005",
			"translation":[
				50,
				30,
				130
			]
		},
		{
			"mesh":1,
			"name":"Plane.010",
			"rotation":[
				-0.7071068286895752,
				0,
				0,
				0.7071068286895752
			],
			"translation":[
				105.98661041259766,
				3,
				98.66414642333984
			]
		}
	],
	"materials":[
		{
			"doubleSided":true,
			"name":"ShinyBlack",
			"pbrMetallicRoughness":{
				"baseColorFactor":[
					0.010021704249083996,
					0.010021704249083996,
					0.010021704249083996,
					1
				],
				"metallicFactor":0.20000000298023224,
				"roughnessFactor":0.5
			}
		},
		{
			"doubleSided":true,
			"emissiveFactor":[
				0,
				0.41388094425201416,
				1
			],
			"extensions":{
				"KHR_materials_emissive_strength":{
					"emissiveStrength":10
				}
			},
			"name":"Neon_blue",
			"pbrMetallicRoughness":{
				"baseColorFactor":[
					0.800000011920929,
					0.800000011920929,
					0.800000011920929,
					1
				],
				"metallicFactor":0,
				"roughnessFactor":0.5
			}
		},
		{
			"doubleSided":true,
			"emissiveFactor":[
				1,
				1,
				1
			],
			"extensions":{
				"KHR_materials_emissive_strength":{
					"emissiveStrength":10
				}
			},
			"name":"Window",
			"pbrMetallicRoughness":{
				"baseColorFactor":[
					0.800000011920929,
					0.800000011920929,
					0.800000011920929,
					1
				],
				"metallicFactor":0,
				"roughnessFactor":0.5
			}
		}
	],
	"meshes":[
		{
			"name":"Cube.005",
			"primitives":[
				{
					"attributes":{
						"POSITION":0,
						"NORMAL":1,
						"TEXCOORD_0":2
					},
					"indices":3,
					"material":0
				},
				{
					"attributes":{
						"POSITION":4,
						"NORMAL":5,
						"TEXCOORD_0":6
					},
					"indices":7,
					"material":1
				}
			]
		},
		{
			"name":"Plane.009",
			"primitives":[
				{
					"attributes":{
						"POSITION":8,
						"NORMAL":9,
						"TEXCOORD_0":10
					},
					"indices":11,
					"material":2
				}
			]
		}
	],
	"accessors":[
		{
			"bufferView":0,
			"componentType":5126,
			"count":76,
			"max":[
				70,
				290,
				30
			],
			"min":[
				-30,
				-30,
				-30
			],
			"type":"VEC3"
		},
		{
			"bufferView":1,
			"componentType":5126,
			"count":76,
			"type":"VEC3"
		},
		{
			"bufferView":2,
			"componentType":5126,
			"count":76,
			"type":"VEC2"
		},
		{
			"bufferView":3,
			"componentType":5123,
			"count":150,
			"type":"SCALAR"
		},
		{
			"bufferView":4,
			"componentType":5126,
			"count":4,
			"max":[
				-9.116116523742676,
				290,
				-9.116116523742676
			],
			"min":[
				-10.883883476257324,
				-30,
				-10.883883476257324
			],
			"type":"VEC3"
		},
		{
			"bufferView":5,
			"componentType":5126,
			"count":4,
			"type":"VEC3"
		},
		{
			"bufferView":6,
			"componentType":5126,
			"count":4,
			"type":"VEC2"
		},
		{
			"bufferView":7,
			"componentType":5123,
			"count":6,
			"type":"SCALAR"
		},
		{
			"bufferView":8,
			"componentType":5126,
			"count":9584,
			"max":[
				12.5,
				0,
				312.5
			],
			"min":[
				-44.5,
				-1.52587890625e-05,
				-0.5
			],
			"type":"VEC3"
		},
		{
			"bufferView":9,
			"componentType":5126,
			"count":9584,
			"type":"VEC3"
		},
		{
			"bufferView":10,
			"componentType":5126,
			"count":9584,
			"type":"VEC2"
		},
		{
			"bufferView":11,
			"componentType":5123,
			"count":14376,
			"type":"SCALAR"
		}
	],
	"bufferViews":[
		{
			"buffer":0,
			"byteLength":912,
			"byteOffset":0,
			"target":34962
		},
		{
			"buffer":0,
			"byteLength":912,
			"byteOffset":912,
			"target":34962
		},
		{
			"buffer":0,
			"byteLength":608,
			"byteOffset":1824,
			"target":34962
		},
		{
			"buffer":0,
			"byteLength":300,
			"byteOffset":2432,
			"target":34963
		},
		{
			"buffer":0,
			"byteLength":48,
			"byteOffset":2732,
			"target":34962
		},
		{
			"buffer":0,
			"byteLength":48,
			"byteOffset":2780,
			"target":34962
		},
		{
			"buffer":0,
			"byteLength":32,
			"byteOffset":2828,
			"target":34962
		},
		{
			"buffer":0,
			"byteLength":12,
			"byteOffset":2860,
			"target":34963
		},
		{
			"buffer":0,
			"byteLength":115008,
			"byteOffset":2872,
			"target":34962
		},
		{
			"buffer":0,
			"byteLength":115008,
			"byteOffset":117880,
			"target":34962
		},
		{
			"buffer":0,
			"byteLength":76672,
			"byteOffset":232888,
			"target":34962
		},
		{
			"buffer":0,
			"byteLength":28752,
			"byteOffset":309560,
			"target":34963
		}
	],
	"buffers":[
		{
			"byteLength":338312,
			"uri":"data:application/octet-stream;base64,"
		}
	]
}
