{
	"asset":{
		"generator":"Khronos glTF Blender I/O v3.6.27",
		"version":"2.0"
	},
	"extensionsUsed":[
		"KHR_materials_emissive_strength"
	],
	"scene":0,
	"scenes":[
		{
			"name":"Scene",
			"nodes":[
				0,
				1,
				2,
				3,
				4
			]
		}
	],
	"nodes":[
		{
			"mesh":0,
			"name":"Cube"
		},
		{
			"mesh":1,
			"name":"Cube.001",
			"rotation":[
				0,
				-0.2164396494626999,
				0,
				0.976296067237854
			],
			"translation":[
				41.70245361328125,
				77.47672271728516,
				98.56644439697266
			]
		},
		{
			"mesh":2,
			"name":"Cube.002",
			"translation":[
				-7.297545433044434,
				77.47672271728516,
				98.56644439697266
			]
		},
		{
			"mesh":3,
			"name":"Plane.001",
			"rotation":[
				0,
				0,
				-0.7071068286895752,
				0.7071068286895752
			],
			"translation":[
				28.03887939453125,
				17.923126220703125,
				-27
			]
		},
		{
			"mesh":4,
			"name":"Text",
			"rotation":[
				0.7071068286895752,
				0,
				0,
				0.7071068286895752
			],
			"translation":[
				21.5,
				82,
				-17.99355697631836
			]
		}
	],
	"materials":[
		{
			"doubleSided":true,
			"name":"ShinyBlack",
			"pbrMetallicRoughness":{
				"baseColorFactor":[
					0.010021704249083996,
					0.010021704249083996,
					0.010021704249083996,
					1
				],
				"metallicFactor":0.20000000298023224,
				"roughnessFactor":0.5
			}
		},
		{
			"doubleSided":true,
			"name":"MattBlack",
			"pbrMetallicRoughness":{
				"baseColorFactor":[
					0.03967929631471634,
					0.03967929631471634,
					0.03967929631471634,
					1
				],
				"metallicFactor":0,
				"roughnessFactor":0.5
			}
		},
		{
			"doubleSided":true,
			"emissiveFactor":[
				0.47537761926651,
				0,
				1
			],
			"extensions":{
				"KHR_materials_emissive_strength":{
					"emissiveStrength":10
				}
			},
			"name":"Neon",
			"pbrMetallicRoughness":{
				"baseColorFactor":[
					0.800000011920929,
					0.800000011920929,
					0.800000011920929,
					1
				],
				"metallicFactor":0,
				"roughnessFactor":0.5
			}
		},
		{
			"doubleSided":true,
			"emissiveFactor":[
				1,
				1,
				1
			],
			"extensions":{
				"KHR_materials_emissive_strength":{
					"emissiveStrength":10
				}
			},
			"name":"Window",
			"pbrMetallicRoughness":{
				"baseColorFactor":[
					0.800000011920929,
					0.800000011920929,
					0.800000011920929,
					1
				],
				"metallicFactor":0,
				"roughnessFactor":0.5
			}
		}
	],
	"meshes":[
		{
			"name":"Cube.002",
			"primitives":[
				{
					"attributes":{
						"POSITION":0,
						"NORMAL":1,
						"TEXCOORD_0":2
					},
					"indices":3,
					"material":0
				},
				{
					"attributes":{
						"POSITION":4,
						"NORMAL":5,
						"TEXCOORD_0":6
					},
					"indices":7,
					"material":1
				}
			]
		},
		{
			"name":"Cube.003",
			"primitives":[
				{
					"attributes":{
						"POSITION":8,
						"NORMAL":9,
						"TEXCOORD_0":10
					},
					"indices":11,
					"material":2
				}
			]
		},
		{
			"name":"Cube.004",
			"primitives":[
				{
					"attributes":{
						"POSITION":12,
						"NORMAL":13,
						"TEXCOORD_0":14
					},
					"indices":11,
					"material":2
				}
			]
		},
		{
			"name":"Plane.001",
			"primitives":[
				{
					"attributes":{
						"POSITION":15,
						"NORMAL":16,
						"TEXCOORD_0":17
					},
					"indices":18,
					"material":3
				}
			]
		},
		{
			"name":"Text",
			"primitives":[
				{
					"attributes":{
						"POSITION":19,
						"NORMAL":20,
						"TEXCOORD_0":21
					},
					"indices":22,
					"material":2
				}
			]
		}
	],
	"accessors":[
		{
			"bufferView":0,
			"componentType":5126,
			"count":157,
			"max":[
				28,
				110,
				70
			],
			"min":[
				-22,
				0,
				-70
			],
			"type":"VEC3"
		},
		{
			"bufferView":1,
			"componentType":5126,
			"count":157,
			"type":"VEC3"
		},
		{
			"bufferView":2,
			"componentType":5126,
			"count":157,
			"type":"VEC2"
		},
		{
			"bufferView":3,
			"componentType":5123,
			"count":312,
			"type":"SCALAR"
		},
		{
			"bufferView":4,
			"componentType":5126,
			"count":340,
			"max":[
				30,
				99,
				72
			],
			"min":[
				-24,
				20.91374969482422,
				-72
			],
			"type":"VEC3"
		},
		{
			"bufferView":5,
			"componentType":5126,
			"count":340,
			"type":"VEC3"
		},
		{
			"bufferView":6,
			"componentType":5126,
			"count":340,
			"type":"VEC2"
		},
		{
			"bufferView":7,
			"componentType":5123,
			"count":612,
			"type":"SCALAR"
		},
		{
			"bufferView":8,
			"componentType":5126,
			"count":24,
			"max":[
				-45.79282760620117,
				17,
				-28.615259170532227
			],
			"min":[
				-55.79282760620117,
				-5,
				-29.615259170532227
			],
			"type":"VEC3"
		},
		{
			"bufferView":9,
			"componentType":5126,
			"count":24,
			"type":"VEC3"
		},
		{
			"bufferView":10,
			"componentType":5126,
			"count":24,
			"type":"VEC2"
		},
		{
			"bufferView":11,
			"componentType":5123,
			"count":36,
			"type":"SCALAR"
		},
		{
			"bufferView":12,
			"componentType":5126,
			"count":24,
			"max":[
				-16.709482192993164,
				17,
				-115
			],
			"min":[
				-26.709482192993164,
				-5,
				-116
			],
			"type":"VEC3"
		},
		{
			"bufferView":13,
			"componentType":5126,
			"count":24,
			"type":"VEC3"
		},
		{
			"bufferView":14,
			"componentType":5126,
			"count":24,
			"type":"VEC2"
		},
		{
			"bufferView":15,
			"componentType":5126,
			"count":744,
			"max":[
				12.50000286102295,
				0,
				34.5
			],
			"min":[
				-89.5,
				-47.50001907348633,
				-43.06196594238281
			],
			"type":"VEC3"
		},
		{
			"bufferView":16,
			"componentType":5126,
			"count":744,
			"type":"VEC3"
		},
		{
			"bufferView":17,
			"componentType":5126,
			"count":744,
			"type":"VEC2"
		},
		{
			"bufferView":18,
			"componentType":5123,
			"count":1116,
			"type":"SCALAR"
		},
		{
			"bufferView":19,
			"componentType":5126,
			"count":1131,
			"max":[
				1.2395005226135254,
				0.25,
				13.191827774047852
			],
			"min":[
				-1.239500641822815,
				-0.25,
				-13.219070434570312
			],
			"type":"VEC3"
		},
		{
			"bufferView":20,
			"componentType":5126,
			"count":1131,
			"type":"VEC3"
		},
		{
			"bufferView":21,
			"componentType":5126,
			"count":1131,
			"type":"VEC2"
		},
		{
			"bufferView":22,
			"componentType":5123,
			"count":3288,
			"type":"SCALAR"
		}
	],
	"bufferViews":[
		{
			"buffer":0,
			"byteLength":1884,
			"byteOffset":0,
			"target":34962
		},
		{
			"buffer":0,
			"byteLength":1884,
			"byteOffset":1884,
			"target":34962
		},
		{
			"buffer":0,
			"byteLength":1256,
			"byteOffset":3768,
			"target":34962
		},
		{
			"buffer":0,
			"byteLength":624,
			"byteOffset":5024,
			"target":34963
		},
		{
			"buffer":0,
			"byteLength":4080,
			"byteOffset":5648,
			"target":34962
		},
		{
			"buffer":0,
			"byteLength":4080,
			"byteOffset":9728,
			"target":34962
		},
		{
			"buffer":0,
			"byteLength":2720,
			"byteOffset":13808,
			"target":34962
		},
		{
			"buffer":0,
			"byteLength":1224,
			"byteOffset":16528,
			"target":34963
		},
		{
			"buffer":0,
			"byteLength":288,
			"byteOffset":17752,
			"target":34962
		},
		{
			"buffer":0,
			"byteLength":288,
			"byteOffset":18040,
			"target":34962
		},
		{
			"buffer":0,
			"byteLength":192,
			"byteOffset":18328,
			"target":34962
		},
		{
			"buffer":0,
			"byteLength":72,
			"byteOffset":18520,
			"target":34963
		},
		{
			"buffer":0,
			"byteLength":288,
			"byteOffset":18592,
			"target":34962
		},
		{
			"buffer":0,
			"byteLength":288,
			"byteOffset":18880,
			"target":34962
		},
		{
			"buffer":0,
			"byteLength":192,
			"byteOffset":19168,
			"target":34962
		},
		{
			"buffer":0,
			"byteLength":8928,
			"byteOffset":19360,
			"target":34962
		},
		{
			"buffer":0,
			"byteLength":8928,
			"byteOffset":28288,
			"target":34962
		},
		{
			"buffer":0,
			"byteLength":5952,
			"byteOffset":37216,
			"target":34962
		},
		{
			"buffer":0,
			"byteLength":2232,
			"byteOffset":43168,
			"target":34963
		},
		{
			"buffer":0,
			"byteLength":13572,
			"byteOffset":45400,
			"target":34962
		},
		{
			"buffer":0,
			"byteLength":13572,
			"byteOffset":58972,
			"target":34962
		},
		{
			"buffer":0,
			"byteLength":9048,
			"byteOffset":72544,
			"target":34962
		},
		{
			"buffer":0,
			"byteLength":6576,
			"byteOffset":81592,
			"target":34963
		}
	],
	"buffers":[
		{
			"byteLength":88168,
			"uri":"data:application/octet-stream;base64,"
		}
	]
}
