{
	"asset":{
		"generator":"Khronos glTF Blender I/O v3.6.27",
		"version":"2.0"
	},
	"extensionsUsed":[
		"KHR_materials_emissive_strength"
	],
	"scene":0,
	"scenes":[
		{
			"name":"Scene",
			"nodes":[
				0,
				1,
				2,
				3,
				4
			]
		}
	],
	"nodes":[
		{
			"mesh":0,
			"name":"Cube"
		},
		{
			"mesh":1,
			"name":"Cube.001",
			"rotation":[
				0,
				-0.2164396494626999,
				0,
				0.976296067237854
			],
			"translation":[
				41.70245361328125,
				77.47672271728516,
				98.56644439697266
			]
		},
		{
			"mesh":2,
			"name":"Cube.002",
			"translation":[
				-7.297545433044434,
				77.47672271728516,
				98.56644439697266
			]
		},
		{
			"mesh":3,
			"name":"Plane.001",
			"rotation":[
				0,
				0,
				-0.7071068286895752,
				0.7071068286895752
			],
			"translation":[
				28.03887939453125,
				17.923126220703125,
				-27
			]
		},
		{
			"mesh":4,
			"name":"Text",
			"rotation":[
				0.7071068286895752,
				0,
				0,
				0.7071068286895752
			],
			"translation":[
				21.5,
				82,
				-17.99355697631836
			]
		}
	],
	"materials":[
		{
			"doubleSided":true,
			"name":"ShinyBlack",
			"pbrMetallicRoughness":{
				"baseColorFactor":[
					0.010021704249083996,
					0.010021704249083996,
					0.010021704249083996,
					1
				],
				"metallicFactor":0.20000000298023224,
				"roughnessFactor":0.5
			}
		},
		{
			"doubleSided":true,
			"name":"MattBlack",
			"pbrMetallicRoughness":{
				"baseColorFactor":[
					0.03967929631471634,
					0.03967929631471634,
					0.03967929631471634,
					1
				],
				"metallicFactor":0,
				"roughnessFactor":0.5
			}
		},
		{
			"doubleSided":true,
			"name":"Video_1",
			"pbrMetallicRoughness":{
				"baseColorFactor":[
					0.800000011920929,
					0.800000011920929,
					0.800000011920929,
					1
				],
				"metallicFactor":0,
				"roughnessFactor":0.5
			}
		},
		{
			"doubleSided":true,
			"name":"Video_2",
			"pbrMetallicRoughness":{
				"baseColorFactor":[
					0.800000011920929,
					0.800000011920929,
					0.800000011920929,
					1
				],
				"metallicFactor":0,
				"roughnessFactor":0.5
			}
		},
		{
			"doubleSided":true,
			"emissiveFactor":[
				1,
				1,
				1
			],
			"extensions":{
				"KHR_materials_emissive_strength":{
					"emissiveStrength":10
				}
			},
			"name":"Window",
			"pbrMetallicRoughness":{
				"baseColorFactor":[
					0.800000011920929,
					0.800000011920929,
					0.800000011920929,
					1
				],
				"metallicFactor":0,
				"roughnessFactor":0.5
			}
		},
		{
			"doubleSided":true,
			"emissiveFactor":[
				0.47537761926651,
				0,
				1
			],
			"extensions":{
				"KHR_materials_emissive_strength":{
					"emissiveStrength":10
				}
			},
			"name":"Neon",
			"pbrMetallicRoughness":{
				"baseColorFactor":[
					0.800000011920929,
					0.800000011920929,
					0.800000011920929,
					1
				],
				"metallicFactor":0,
				"roughnessFactor":0.5
			}
		}
	],
	"meshes":[
		{
			"name":"Cube.002",
			"primitives":[
				{
					"attributes":{
						"POSITION":0,
						"NORMAL":1,
						"TEXCOORD_0":2
					},
					"indices":3,
					"material":0
				},
				{
					"attributes":{
						"POSITION":4,
						"NORMAL":5,
						"TEXCOORD_0":6
					},
					"indices":7,
					"material":1
				}
			]
		},
		{
			"name":"Cube.003",
			"primitives":[
				{
					"attributes":{
						"POSITION":8,
						"NORMAL":9,
						"TEXCOORD_0":10
					},
					"indices":11,
					"material":1
				},
				{
					"attributes":{
						"POSITION":12,
						"NORMAL":13,
						"TEXCOORD_0":14
					},
					"indices":15,
					"material":2
				},
				{
					"attributes":{
						"POSITION":16,
						"NORMAL":17,
						"TEXCOORD_0":18
					},
					"indices":19,
					"material":3
				}
			]
		},
		{
			"name":"Cube.004",
			"primitives":[
				{
					"attributes":{
						"POSITION":20,
						"NORMAL":21,
						"TEXCOORD_0":22
					},
					"indices":23,
					"material":1
				},
				{
					"attributes":{
						"POSITION":24,
						"NORMAL":25,
						"TEXCOORD_0":26
					},
					"indices":27,
					"material":2
				},
				{
					"attributes":{
						"POSITION":28,
						"NORMAL":29,
						"TEXCOORD_0":30
					},
					"indices":31,
					"material":3
				}
			]
		},
		{
			"name":"Plane.001",
			"primitives":[
				{
					"attributes":{
						"POSITION":32,
						"NORMAL":33,
						"TEXCOORD_0":34
					},
					"indices":35,
					"material":4
				}
			]
		},
		{
			"name":"Text",
			"primitives":[
				{
					"attributes":{
						"POSITION":36,
						"NORMAL":37,
						"TEXCOORD_0":38
					},
					"indices":39,
					"material":5
				}
			]
		}
	],
	"accessors":[
		{
			"bufferView":0,
			"componentType":5126,
			"count":157,
			"max":[
				28,
				110,
				70
			],
			"min":[
				-22,
				0,
				-70
			],
			"type":"VEC3"
		},
		{
			"bufferView":1,
			"componentType":5126,
			"count":157,
			"type":"VEC3"
		},
		{
			"bufferView":2,
			"componentType":5126,
			"count":157,
			"type":"VEC2"
		},
		{
			"bufferView":3,
			"componentType":5123,
			"count":312,
			"type":"SCALAR"
		},
		{
			"bufferView":4,
			"componentType":5126,
			"count":340,
			"max":[
				30,
				99,
				72
			],
			"min":[
				-24,
				20.91374969482422,
				-72
			],
			"type":"VEC3"
		},
		{
			"bufferView":5,
			"componentType":5126,
			"count":340,
			"type":"VEC3"
		},
		{
			"bufferView":6,
			"componentType":5126,
			"count":340,
			"type":"VEC2"
		},
		{
			"bufferView":7,
			"componentType":5123,
			"count":612,
			"type":"SCALAR"
		},
		{
			"bufferView":8,
			"componentType":5126,
			"count":32,
			"max":[
				-45.79282760620117,
				17,
				-28.615259170532227
			],
			"min":[
				-55.79282760620117,
				-5,
				-29.615259170532227
			],
			"type":"VEC3"
		},
		{
			"bufferView":9,
			"componentType":5126,
			"count":32,
			"type":"VEC3"
		},
		{
			"bufferView":10,
			"componentType":5126,
			"count":32,
			"type":"VEC2"
		},
		{
			"bufferView":11,
			"componentType":5123,
			"count":72,
			"type":"SCALAR"
		},
		{
			"bufferView":12,
			"componentType":5126,
			"count":4,
			"max":[
				-46.29282760620117,
				16.5,
				-28.615259170532227
			],
			"min":[
				-55.29282760620117,
				-4.5,
				-28.615259170532227
			],
			"type":"VEC3"
		},
		{
			"bufferView":13,
			"componentType":5126,
			"count":4,
			"type":"VEC3"
		},
		{
			"bufferView":14,
			"componentType":5126,
			"count":4,
			"type":"VEC2"
		},
		{
			"bufferView":15,
			"componentType":5123,
			"count":6,
			"type":"SCALAR"
		},
		{
			"bufferView":16,
			"componentType":5126,
			"count":4,
			"max":[
				-46.29282760620117,
				16.5,
				-29.615259170532227
			],
			"min":[
				-55.29282760620117,
				-4.5,
				-29.615259170532227
			],
			"type":"VEC3"
		},
		{
			"bufferView":17,
			"componentType":5126,
			"count":4,
			"type":"VEC3"
		},
		{
			"bufferView":18,
			"componentType":5126,
			"count":4,
			"type":"VEC2"
		},
		{
			"bufferView":19,
			"componentType":5123,
			"count":6,
			"type":"SCALAR"
		},
		{
			"bufferView":20,
			"componentType":5126,
			"count":72,
			"max":[
				-16.709482192993164,
				17,
				-115
			],
			"min":[
				-26.709482192993164,
				-5,
				-116
			],
			"type":"VEC3"
		},
		{
			"bufferView":21,
			"componentType":5126,
			"count":72,
			"type":"VEC3"
		},
		{
			"bufferView":22,
			"componentType":5126,
			"count":72,
			"type":"VEC2"
		},
		{
			"bufferView":23,
			"componentType":5123,
			"count":72,
			"type":"SCALAR"
		},
		{
			"bufferView":24,
			"componentType":5126,
			"count":6,
			"max":[
				-17.209482192993164,
				16.5,
				-115
			],
			"min":[
				-26.209482192993164,
				-4.5,
				-115
			],
			"type":"VEC3"
		},
		{
			"bufferView":25,
			"componentType":5126,
			"count":6,
			"type":"VEC3"
		},
		{
			"bufferView":26,
			"componentType":5126,
			"count":6,
			"type":"VEC2"
		},
		{
			"bufferView":27,
			"componentType":5123,
			"count":6,
			"type":"SCALAR"
		},
		{
			"bufferView":28,
			"componentType":5126,
			"count":6,
			"max":[
				-17.209482192993164,
				16.5,
				-116
			],
			"min":[
				-26.209482192993164,
				-4.5,
				-116
			],
			"type":"VEC3"
		},
		{
			"bufferView":29,
			"componentType":5126,
			"count":6,
			"type":"VEC3"
		},
		{
			"bufferView":30,
			"componentType":5126,
			"count":6,
			"type":"VEC2"
		},
		{
			"bufferView":31,
			"componentType":5123,
			"count":6,
			"type":"SCALAR"
		},
		{
			"bufferView":32,
			"componentType":5126,
			"count":744,
			"max":[
				12.50000286102295,
				0,
				34.5
			],
			"min":[
				-89.5,
				-47.50001907348633,
				-43.06196594238281
			],
			"type":"VEC3"
		},
		{
			"bufferView":33,
			"componentType":5126,
			"count":744,
			"type":"VEC3"
		},
		{
			"bufferView":34,
			"componentType":5126,
			"count":744,
			"type":"VEC2"
		},
		{
			"bufferView":35,
			"componentType":5123,
			"count":1116,
			"type":"SCALAR"
		},
		{
			"bufferView":36,
			"componentType":5126,
			"count":1131,
			"max":[
				1.2395005226135254,
				0.25,
				13.191827774047852
			],
			"min":[
				-1.239500641822815,
				-0.25,
				-13.219070434570312
			],
			"type":"VEC3"
		},
		{
			"bufferView":37,
			"componentType":5126,
			"count":1131,
			"type":"VEC3"
		},
		{
			"bufferView":38,
			"componentType":5126,
			"count":1131,
			"type":"VEC2"
		},
		{
			"bufferView":39,
			"componentType":5123,
			"count":3288,
			"type":"SCALAR"
		}
	],
	"bufferViews":[
		{
			"buffer":0,
			"byteLength":1884,
			"byteOffset":0,
			"target":34962
		},
		{
			"buffer":0,
			"byteLength":1884,
			"byteOffset":1884,
			"target":34962
		},
		{
			"buffer":0,
			"byteLength":1256,
			"byteOffset":3768,
			"target":34962
		},
		{
			"buffer":0,
			"byteLength":624,
			"byteOffset":5024,
			"target":34963
		},
		{
			"buffer":0,
			"byteLength":4080,
			"byteOffset":5648,
			"target":34962
		},
		{
			"buffer":0,
			"byteLength":4080,
			"byteOffset":9728,
			"target":34962
		},
		{
			"buffer":0,
			"byteLength":2720,
			"byteOffset":13808,
			"target":34962
		},
		{
			"buffer":0,
			"byteLength":1224,
			"byteOffset":16528,
			"target":34963
		},
		{
			"buffer":0,
			"byteLength":384,
			"byteOffset":17752,
			"target":34962
		},
		{
			"buffer":0,
			"byteLength":384,
			"byteOffset":18136,
			"target":34962
		},
		{
			"buffer":0,
			"byteLength":256,
			"byteOffset":18520,
			"target":34962
		},
		{
			"buffer":0,
			"byteLength":144,
			"byteOffset":18776,
			"target":34963
		},
		{
			"buffer":0,
			"byteLength":48,
			"byteOffset":18920,
			"target":34962
		},
		{
			"buffer":0,
			"byteLength":48,
			"byteOffset":18968,
			"target":34962
		},
		{
			"buffer":0,
			"byteLength":32,
			"byteOffset":19016,
			"target":34962
		},
		{
			"buffer":0,
			"byteLength":12,
			"byteOffset":19048,
			"target":34963
		},
		{
			"buffer":0,
			"byteLength":48,
			"byteOffset":19060,
			"target":34962
		},
		{
			"buffer":0,
			"byteLength":48,
			"byteOffset":19108,
			"target":34962
		},
		{
			"buffer":0,
			"byteLength":32,
			"byteOffset":19156,
			"target":34962
		},
		{
			"buffer":0,
			"byteLength":12,
			"byteOffset":19188,
			"target":34963
		},
		{
			"buffer":0,
			"byteLength":864,
			"byteOffset":19200,
			"target":34962
		},
		{
			"buffer":0,
			"byteLength":864,
			"byteOffset":20064,
			"target":34962
		},
		{
			"buffer":0,
			"byteLength":576,
			"byteOffset":20928,
			"target":34962
		},
		{
			"buffer":0,
			"byteLength":144,
			"byteOffset":21504,
			"target":34963
		},
		{
			"buffer":0,
			"byteLength":72,
			"byteOffset":21648,
			"target":34962
		},
		{
			"buffer":0,
			"byteLength":72,
			"byteOffset":21720,
			"target":34962
		},
		{
			"buffer":0,
			"byteLength":48,
			"byteOffset":21792,
			"target":34962
		},
		{
			"buffer":0,
			"byteLength":12,
			"byteOffset":21840,
			"target":34963
		},
		{
			"buffer":0,
			"byteLength":72,
			"byteOffset":21852,
			"target":34962
		},
		{
			"buffer":0,
			"byteLength":72,
			"byteOffset":21924,
			"target":34962
		},
		{
			"buffer":0,
			"byteLength":48,
			"byteOffset":21996,
			"target":34962
		},
		{
			"buffer":0,
			"byteLength":12,
			"byteOffset":22044,
			"target":34963
		},
		{
			"buffer":0,
			"byteLength":8928,
			"byteOffset":22056,
			"target":34962
		},
		{
			"buffer":0,
			"byteLength":8928,
			"byteOffset":30984,
			"target":34962
		},
		{
			"buffer":0,
			"byteLength":5952,
			"byteOffset":39912,
			"target":34962
		},
		{
			"buffer":0,
			"byteLength":2232,
			"byteOffset":45864,
			"target":34963
		},
		{
			"buffer":0,
			"byteLength":13572,
			"byteOffset":48096,
			"target":34962
		},
		{
			"buffer":0,
			"byteLength":13572,
			"byteOffset":61668,
			"target":34962
		},
		{
			"buffer":0,
			"byteLength":9048,
			"byteOffset":75240,
			"target":34962
		},
		{
			"buffer":0,
			"byteLength":6576,
			"byteOffset":84288,
			"target":34963
		}
	],
	"buffers":[
		{
			"byteLength":90864,
			"uri":"data:application/octet-stream;base64,"
		}
	]
}
